<svg xmlns="http://www.w3.org/2000/svg" width="1200" height="720" viewBox="0 0 1200 720" role="img" aria-labelledby="title desc">
  <title id="title">Mirror Dock preview</title>
  <desc id="desc">A stylized preview of the Mirror Dock beam puzzle board and score panel.</desc>
  <rect width="1200" height="720" fill="#f7f4ee"/>
  <path d="M0 0h1200v720H0z" fill="#f7f4ee"/>
  <path d="M0 0h1200v720H0z" fill="none"/>
  <rect x="70" y="62" width="704" height="596" rx="18" fill="#ffffff" stroke="#d8ded4" stroke-width="2"/>
  <rect x="815" y="62" width="315" height="596" rx="18" fill="#ffffff" stroke="#d8ded4" stroke-width="2"/>
  <text x="112" y="132" fill="#ef5b45" font-family="Inter, Arial, sans-serif" font-size="24" font-weight="800">DAILY BEAM PUZZLE</text>
  <text x="112" y="204" fill="#18211f" font-family="Inter, Arial, sans-serif" font-size="78" font-weight="900">Mirror Dock</text>
  <rect x="112" y="248" width="560" height="64" rx="12" fill="#f9fbf7" stroke="#d8ded4"/>
  <text x="140" y="289" fill="#18211f" font-family="Inter, Arial, sans-serif" font-size="28" font-weight="800">Dock 3/5</text>
  <text x="310" y="289" fill="#18a999" font-family="Inter, Arial, sans-serif" font-size="28" font-weight="800">Pulses 9</text>
  <text x="500" y="289" fill="#364f6b" font-family="Inter, Arial, sans-serif" font-size="28" font-weight="800">Score 1840</text>
  <g transform="translate(112 350)">
    <rect width="432" height="432" rx="16" fill="#18211f"/>
    <g transform="translate(18 18)">
      <rect width="60" height="60" fill="#edf2e9"/>
      <rect x="67" width="60" height="60" fill="#fff9dd" stroke="#f2c14e" stroke-width="4"/>
      <text x="88" y="42" fill="#18211f" font-family="Menlo, Consolas, monospace" font-size="38" font-weight="900">/</text>
      <rect x="134" width="60" height="60" fill="#ffe8a8"/>
      <rect x="201" width="60" height="60" fill="#ffe8a8"/>
      <rect x="268" width="60" height="60" fill="#fff9dd" stroke="#f2c14e" stroke-width="4"/>
      <text x="287" y="42" fill="#18211f" font-family="Menlo, Consolas, monospace" font-size="38" font-weight="900">\</text>
      <rect x="335" width="60" height="60" fill="#edf2e9"/>
      <rect y="67" width="60" height="60" fill="#fff9dd" stroke="#f2c14e" stroke-width="4"/>
      <text x="20" y="109" fill="#18211f" font-family="Menlo, Consolas, monospace" font-size="38" font-weight="900">\</text>
      <rect x="67" y="67" width="60" height="60" fill="#ffe8a8"/>
      <rect x="134" y="67" width="60" height="60" fill="#edf2e9"/>
      <rect x="201" y="67" width="60" height="60" fill="#edf2e9"/>
      <rect x="268" y="67" width="60" height="60" fill="#ffe8a8"/>
      <rect x="335" y="67" width="60" height="60" fill="#edf2e9"/>
      <rect y="134" width="60" height="60" fill="#edf2e9"/>
      <rect x="67" y="134" width="60" height="60" fill="#ffe8a8"/>
      <rect x="134" y="134" width="60" height="60" fill="#fff9dd" stroke="#f2c14e" stroke-width="4"/>
      <text x="154" y="176" fill="#18211f" font-family="Menlo, Consolas, monospace" font-size="38" font-weight="900">/</text>
      <rect x="201" y="134" width="60" height="60" fill="#edf2e9"/>
      <rect x="268" y="134" width="60" height="60" fill="#ffe8a8"/>
      <rect x="335" y="134" width="60" height="60" fill="#edf2e9"/>
      <rect y="201" width="60" height="60" fill="#edf2e9"/>
      <rect x="67" y="201" width="60" height="60" fill="#edf2e9"/>
      <rect x="134" y="201" width="60" height="60" fill="#ffe8a8"/>
      <rect x="201" y="201" width="60" height="60" fill="#ffe8a8"/>
      <rect x="268" y="201" width="60" height="60" fill="#c9f4df"/>
      <rect x="335" y="201" width="60" height="60" fill="#edf2e9"/>
      <rect y="268" width="60" height="60" fill="#edf2e9"/>
      <rect x="67" y="268" width="60" height="60" fill="#edf2e9"/>
      <rect x="134" y="268" width="60" height="60" fill="#edf2e9"/>
      <rect x="201" y="268" width="60" height="60" fill="#fff9dd" stroke="#f2c14e" stroke-width="4"/>
      <text x="222" y="310" fill="#18211f" font-family="Menlo, Consolas, monospace" font-size="38" font-weight="900">/</text>
      <rect x="268" y="268" width="60" height="60" fill="#c9f4df"/>
      <rect x="335" y="268" width="60" height="60" fill="#c9f4df"/>
      <rect y="335" width="60" height="60" fill="#edf2e9"/>
      <rect x="67" y="335" width="60" height="60" fill="#edf2e9"/>
      <rect x="134" y="335" width="60" height="60" fill="#edf2e9"/>
      <rect x="201" y="335" width="60" height="60" fill="#edf2e9"/>
      <rect x="268" y="335" width="60" height="60" fill="#edf2e9"/>
      <rect x="335" y="335" width="60" height="60" fill="#c9f4df"/>
    </g>
  </g>
  <g transform="translate(835 102)">
    <text x="0" y="40" fill="#ef5b45" font-family="Inter, Arial, sans-serif" font-size="22" font-weight="800">NOW ALIGNING</text>
    <text x="0" y="92" fill="#18211f" font-family="Inter, Arial, sans-serif" font-size="42" font-weight="900">Relay Dock</text>
    <rect x="0" y="128" width="270" height="82" rx="12" fill="#f9fbf7" stroke="#d8ded4"/>
    <text x="22" y="179" fill="#5e6862" font-family="Inter, Arial, sans-serif" font-size="24" font-weight="700">Beam landed. +682</text>
    <rect x="0" y="246" width="270" height="62" rx="12" fill="#18a999"/>
    <text x="74" y="286" fill="#ffffff" font-family="Inter, Arial, sans-serif" font-size="24" font-weight="900">Fire beam</text>
    <rect x="0" y="326" width="270" height="62" rx="12" fill="#f2c14e"/>
    <text x="78" y="366" fill="#18211f" font-family="Inter, Arial, sans-serif" font-size="24" font-weight="900">Next dock</text>
    <rect x="0" y="424" width="270" height="132" rx="12" fill="#f9fbf7" stroke="#d8ded4"/>
    <text x="22" y="470" fill="#18211f" font-family="Inter, Arial, sans-serif" font-size="28" font-weight="900">Grade A</text>
    <text x="22" y="514" fill="#5e6862" font-family="Inter, Arial, sans-serif" font-size="22" font-weight="700">5 docks, 9 pulses left</text>
  </g>
</svg>
